<?xml version="1.0" encoding="utf-8"?>
<!-- Generator: Adobe Illustrator 17.0.0, SVG Export Plug-In . SVG Version: 6.00 Build 0)  -->
<!DOCTYPE svg PUBLIC "-//W3C//DTD SVG 1.1//EN" "http://www.w3.org/Graphics/SVG/1.1/DTD/svg11.dtd">
<svg version="1.1" id="Layer_1" xmlns="http://www.w3.org/2000/svg" xmlns:xlink="http://www.w3.org/1999/xlink" x="0px" y="0px"
	 width="64px" height="64px" viewBox="0 0 64 64" enable-background="new 0 0 64 64" xml:space="preserve">
<path d="M43.476,19.447c0.777-0.837,1.263-1.975,1.263-3.229c0-2.619-2.092-4.711-4.628-4.711c-1.924,0-6.359,2.878-8.132,5.464
	c-1.832-2.586-6.25-5.38-8.099-5.38c-2.527,0-4.628,2.092-4.628,4.711c0,1.213,0.452,2.309,1.18,3.137h-8.936v11.254h2.443v21.812
	h12.826h10.468H50.06V30.699h2.434V19.447H43.476z M40.111,13.255c1.574,0,2.879,1.305,2.879,3.054c0,1.473-1.029,2.736-2.359,3.004
	h-7.078c-0.452-0.134-0.595-0.293-0.595-0.385C32.958,17.438,38.187,13.255,40.111,13.255z M23.88,13.255
	c1.832,0,7.153,4.184,7.153,5.673c0,0.134-0.31,0.285-0.535,0.385h-7.129c-1.33-0.268-2.359-1.531-2.359-3.004
	C21.002,14.644,22.315,13.255,23.88,13.255z M26.759,50.755H15.681V30.699h11.078V50.755z M26.759,29.043H13.245v-7.847h13.521
	v7.847H26.759z M35.476,50.755h-6.977V21.187h6.977V50.755z M48.303,50.755H37.225V30.699h11.077V50.755z M50.737,29.043H37.225
	v-7.847h13.521v7.847H50.737z"/>
</svg>
