<?xml version="1.0" encoding="utf-8"?>
<!-- Generator: Adobe Illustrator 17.0.0, SVG Export Plug-In . SVG Version: 6.00 Build 0)  -->
<!DOCTYPE svg PUBLIC "-//W3C//DTD SVG 1.1//EN" "http://www.w3.org/Graphics/SVG/1.1/DTD/svg11.dtd">
<svg version="1.1" id="Layer_1" xmlns="http://www.w3.org/2000/svg" xmlns:xlink="http://www.w3.org/1999/xlink" x="0px" y="0px"
	 width="64px" height="64px" viewBox="0 0 64 64" enable-background="new 0 0 64 64" xml:space="preserve">
<g>
	<g>
		<path d="M32.593,34.379c-0.095-0.021-0.192-0.024-0.286-0.01c-0.959-0.114-1.684-0.94-1.685-1.923
			c0-0.471-0.375-0.853-0.838-0.853c-0.462,0-0.837,0.382-0.837,0.853c0.003,1.641,1.081,3.079,2.636,3.513v0.852
			c0,0.471,0.375,0.853,0.837,0.853c0.463,0,0.838-0.382,0.838-0.853v-0.801c1.794-0.383,3.013-2.084,2.824-3.94
			c-0.188-1.857-1.725-3.267-3.558-3.267c-1.05,0-1.902-0.868-1.902-1.937c0-1.069,0.853-1.936,1.902-1.936
			c1.051,0,1.902,0.867,1.902,1.936c0,0.471,0.375,0.854,0.838,0.854s0.838-0.382,0.838-0.854c-0.002-1.723-1.188-3.21-2.844-3.565
			v-0.776c0-0.471-0.375-0.853-0.838-0.853c-0.463,0-0.837,0.382-0.837,0.853v0.828c-1.73,0.481-2.842,2.19-2.604,3.998
			c0.238,1.809,1.753,3.159,3.546,3.158c1.036,0,1.882,0.845,1.901,1.9C34.444,33.464,33.628,34.341,32.593,34.379z M32.523,42.091
			c6.709,0,12.149-5.537,12.149-12.369c0-6.831-5.44-12.368-12.149-12.368c-6.707,0.008-12.141,5.541-12.149,12.368
			C20.374,36.554,25.813,42.091,32.523,42.091z M32.523,19.06c5.784,0,10.474,4.773,10.474,10.663s-4.689,10.663-10.474,10.663
			c-5.785,0-10.474-4.774-10.474-10.663C22.056,23.837,26.742,19.067,32.523,19.06z M54.392,45.927
			c-1.11-2.004-3.571-2.767-5.59-1.733l-6.563,3.156c-0.906-1.716-2.644-2.807-4.558-2.862l-6.058-0.17
			c-0.959-0.028-1.901-0.275-2.753-0.724l-0.617-0.325c-3.156-1.675-6.918-1.67-10.072,0.011l0.038-1.421
			c0.013-0.471-0.352-0.864-0.814-0.877l-6.644-0.186c-0.462-0.013-0.847,0.359-0.86,0.829L9.5,56.468
			c-0.013,0.471,0.352,0.863,0.815,0.876l6.644,0.185h0.022c0.455,0,0.825-0.367,0.838-0.829l0.02-0.71l1.725-0.941
			c0.678-0.37,1.47-0.459,2.21-0.246l10.306,2.945c0.018,0.006,0.036,0.01,0.055,0.014C32.88,57.921,33.639,58,34.399,58
			c1.613,0,3.205-0.353,4.671-1.038c0.036-0.017,0.07-0.036,0.103-0.058l14.944-9.841C54.489,46.818,54.609,46.32,54.392,45.927z
			 M16.166,55.802l-4.968-0.14l0.356-13.137l4.968,0.139L16.166,55.802z M38.315,55.438c-1.82,0.837-3.853,1.068-5.81,0.661
			l-10.278-2.937c-1.157-0.333-2.396-0.195-3.454,0.384l-0.882,0.481l0.236-8.735c2.795-1.892,6.379-2.087,9.356-0.507l0.617,0.325
			c1.077,0.566,2.266,0.879,3.478,0.914l6.059,0.17c1.702,0.05,3.147,1.283,3.492,2.981l-9.024-0.253
			c-0.463-0.013-0.848,0.358-0.86,0.828c-0.014,0.471,0.352,0.863,0.814,0.877l9.959,0.279h0.023c0.453,0,0.825-0.368,0.837-0.829
			c0.01-0.371-0.016-0.742-0.08-1.107l6.731-3.238c0.007-0.003,0.013-0.007,0.02-0.01c0.954-0.492,2.108-0.327,2.895,0.413
			L38.315,55.438z M32.523,15.809c0.463,0,0.838-0.381,0.838-0.853V6.854C33.361,6.383,32.986,6,32.523,6
			c-0.463,0-0.838,0.382-0.838,0.853v8.103C31.685,15.428,32.06,15.809,32.523,15.809z M38.807,15.809
			c0.463,0,0.838-0.381,0.838-0.853v-3.838c0-0.471-0.375-0.853-0.838-0.853c-0.462,0-0.838,0.381-0.838,0.853v3.838
			C37.969,15.428,38.345,15.809,38.807,15.809z M26.24,15.809c0.463,0,0.837-0.381,0.837-0.853v-3.838
			c0-0.471-0.374-0.853-0.837-0.853c-0.464,0-0.838,0.381-0.838,0.853v3.838C25.402,15.428,25.777,15.809,26.24,15.809z"/>
	</g>
</g>
</svg>
