<?xml version="1.0" encoding="utf-8"?>
<!-- Generator: Adobe Illustrator 17.0.0, SVG Export Plug-In . SVG Version: 6.00 Build 0)  -->
<!DOCTYPE svg PUBLIC "-//W3C//DTD SVG 1.1//EN" "http://www.w3.org/Graphics/SVG/1.1/DTD/svg11.dtd">
<svg version="1.1" id="Layer_1" xmlns="http://www.w3.org/2000/svg" xmlns:xlink="http://www.w3.org/1999/xlink" x="0px" y="0px"
	 width="64px" height="64px" viewBox="0 0 64 64" enable-background="new 0 0 64 64" xml:space="preserve">
<g>
	<path fill="#010101" d="M63.101,12.711c-2.289,1.015-4.748,1.701-7.329,2.009c2.634-1.579,4.658-4.08,5.611-7.06
		c-2.466,1.463-5.197,2.524-8.104,3.097c-2.328-2.48-5.644-4.03-9.315-4.03c-7.047,0-12.761,5.713-12.761,12.76
		c0,1,0.113,1.974,0.33,2.908C20.929,21.863,11.526,16.783,5.232,9.062c-1.098,1.885-1.728,4.077-1.728,6.415
		c0,4.427,2.253,8.333,5.677,10.622c-2.092-0.066-4.059-0.64-5.78-1.596C3.4,24.557,3.4,24.61,3.4,24.664
		c0,6.183,4.399,11.34,10.236,12.513c-1.071,0.291-2.198,0.448-3.362,0.448c-0.822,0-1.622-0.08-2.401-0.229
		c1.624,5.07,6.337,8.759,11.921,8.862c-4.367,3.423-9.87,5.463-15.848,5.463c-1.03,0-2.046-0.06-3.044-0.179
		c5.647,3.621,12.355,5.734,19.561,5.734c23.472,0,36.308-19.445,36.308-36.308c0-0.553-0.013-1.104-0.037-1.651
		C59.227,17.517,61.391,15.27,63.101,12.711z"/>
</g>
</svg>
