<?xml version="1.0" encoding="utf-8"?>
<!-- Generator: Adobe Illustrator 17.0.0, SVG Export Plug-In . SVG Version: 6.00 Build 0)  -->
<!DOCTYPE svg PUBLIC "-//W3C//DTD SVG 1.1//EN" "http://www.w3.org/Graphics/SVG/1.1/DTD/svg11.dtd">
<svg version="1.1" id="Layer_1" xmlns="http://www.w3.org/2000/svg" xmlns:xlink="http://www.w3.org/1999/xlink" x="0px" y="0px"
	 width="64px" height="64px" viewBox="0 0 64 64" enable-background="new 0 0 64 64" xml:space="preserve">
<path d="M44.786,9.502H18.215c-5.356,0-9.713,4.357-9.713,9.712v26.572c0,5.356,4.357,9.713,9.713,9.713h26.571
	c5.356,0,9.713-4.357,9.713-9.713V19.214C54.498,13.858,50.142,9.502,44.786,9.502z M52.16,45.786c0,4.066-3.309,7.374-7.374,7.374
	H18.215c-4.066,0-7.375-3.308-7.375-7.374V19.214c0-4.066,3.309-7.374,7.375-7.374h26.571c4.066,0,7.374,3.308,7.374,7.374V45.786
	L52.16,45.786z"/>
<path d="M38.754,19.578l-3.679,0.002c0,0-0.075-0.006-0.209-0.006c-0.755,0-4.572,0.214-5.611,4.392
	c-0.016,0.046-0.366,1.092-0.371,3.524h-3.49c-0.31,0-0.561,0.257-0.561,0.572v3.283c0,0.316,0.251,0.572,0.561,0.572h3.817v11.788
	c0,0.316,0.251,0.573,0.56,0.573h4.371c0.309,0,0.561-0.257,0.561-0.573V31.929h3.829c0.309,0,0.561-0.257,0.561-0.572v-3.295
	c0-0.316-0.251-0.572-0.561-0.572h-3.822v-1.409c0-0.938,0.583-1.94,2.22-1.94h1.823c0.309,0,0.561-0.257,0.561-0.573V20.15
	C39.315,19.835,39.064,19.578,38.754,19.578z M38.193,22.997h-1.261c-2.308,0-3.342,1.55-3.342,3.085v1.981
	c0,0.316,0.251,0.573,0.561,0.573h3.821v2.149h-3.829c-0.31,0-0.561,0.257-0.561,0.573v11.776h-3.249V31.345
	c0-0.316-0.251-0.573-0.561-0.573h-3.816v-2.138h3.494c0.151,0,0.295-0.062,0.4-0.172c0.106-0.11,0.164-0.258,0.161-0.412
	c-0.05-2.603,0.301-3.699,0.317-3.755c0.827-3.319,3.683-3.578,4.538-3.578c0.078,0,0.125,0.002,0.171,0.004h3.156V22.997
	L38.193,22.997z"/>
</svg>
