<?xml version="1.0" encoding="utf-8"?>
<!-- Generator: Adobe Illustrator 17.0.0, SVG Export Plug-In . SVG Version: 6.00 Build 0)  -->
<!DOCTYPE svg PUBLIC "-//W3C//DTD SVG 1.1//EN" "http://www.w3.org/Graphics/SVG/1.1/DTD/svg11.dtd">
<svg version="1.1" id="Layer_1" xmlns="http://www.w3.org/2000/svg" xmlns:xlink="http://www.w3.org/1999/xlink" x="0px" y="0px"
	 width="64px" height="64px" viewBox="0 0 64 64" enable-background="new 0 0 64 64" xml:space="preserve">
<path fill="#010101" d="M60.704,26.84c-0.054-1.739-0.343-3.471-0.859-5.137c-0.436-1.415-1.03-2.781-1.761-4.07
	c-0.638-1.13-1.378-2.205-2.204-3.209c-0.74-0.908-1.553-1.76-2.416-2.552c-3.347-3.071-7.482-5.249-11.857-6.505
	c-0.662-0.189-1.33-0.358-2-0.506c-1.609-0.355-3.247-0.59-4.89-0.709c-0.781-0.059-1.57-0.085-2.354-0.094
	c-0.124,0-0.249,0-0.367,0c-0.727,0.008-1.455,0.032-2.178,0.08c-1.59,0.106-3.171,0.323-4.729,0.65
	c-4.887,1.024-9.571,3.151-13.382,6.365c-0.863,0.727-1.677,1.512-2.436,2.349c-0.848,0.934-1.623,1.93-2.302,2.985
	c-0.757,1.162-1.403,2.397-1.917,3.684c-0.607,1.516-1.028,3.104-1.241,4.719c-0.254,1.925-0.219,3.884,0.104,5.796
	c0.395,2.302,1.204,4.524,2.351,6.563c0.952,1.691,2.126,3.251,3.469,4.653c0.664,0.689,1.364,1.336,2.096,1.949
	c0.13,0.11,0.263,0.219,0.399,0.326c0.102,0.084,0.211,0.169,0.317,0.252L8.594,59.25c-0.008,0.043-0.018,0.088-0.026,0.133
	c-0.009,0.088-0.005,0.177,0.011,0.265c0.015,0.09,0.047,0.175,0.086,0.256c0.147,0.281,0.438,0.476,0.759,0.502
	c0.134,0.009,0.271-0.008,0.403-0.055c0.041-0.016,0.08-0.036,0.122-0.055l0.113-0.071l13.966-10.361l0.08,0.02
	c1.098,0.263,2.204,0.473,3.319,0.63c1.937,0.267,3.896,0.369,5.846,0.308c1.957-0.059,3.909-0.285,5.825-0.675
	c3.813-0.779,7.499-2.225,10.758-4.337c2.601-1.685,4.935-3.799,6.766-6.289c1.473-1.996,2.616-4.232,3.308-6.609
	C60.505,30.943,60.769,28.888,60.704,26.84z M50.175,19.039c-0.008,0.085-0.026,0.183-0.063,0.284
	c-0.034,0.126-0.08,0.264-0.13,0.41c-3.013,2.751-5.701,5.208-8.058,7.375c-1.002,0.923-1.989,1.825-2.959,2.705
	c-0.974,0.877-1.839,1.666-2.597,2.36c-0.759,0.696-1.375,1.255-1.848,1.674c-0.475,0.423-0.716,0.635-0.735,0.635
	c-0.034,0-0.134,0.069-0.299,0.203c-0.167,0.138-0.339,0.294-0.528,0.466c-0.223,0.192-0.481,0.415-0.774,0.666l-3.26-8.848
	L14.18,36.758c0.05-0.205,0.093-0.379,0.128-0.529c0.035-0.124,0.065-0.24,0.074-0.351c0.017-0.106,0.01-0.164-0.022-0.164
	c-0.016,0,0.21-0.224,0.685-0.674c0.473-0.452,1.098-1.047,1.874-1.789c0.772-0.744,1.662-1.585,2.66-2.533
	c0.998-0.947,2.013-1.916,3.046-2.911c2.445-2.314,5.224-4.948,8.343-7.905l3.568,9.205c2.909-1.903,5.503-3.602,7.775-5.098
	c0.98-0.64,1.935-1.262,2.866-1.872s1.761-1.156,2.492-1.636c0.733-0.479,1.323-0.865,1.773-1.152
	c0.446-0.293,0.677-0.439,0.694-0.439C50.174,18.911,50.188,18.954,50.175,19.039z"/>
</svg>
