<?xml version="1.0" encoding="utf-8"?>
<!-- Generator: Adobe Illustrator 17.0.0, SVG Export Plug-In . SVG Version: 6.00 Build 0)  -->
<!DOCTYPE svg PUBLIC "-//W3C//DTD SVG 1.1//EN" "http://www.w3.org/Graphics/SVG/1.1/DTD/svg11.dtd">
<svg version="1.1" id="Layer_1" xmlns="http://www.w3.org/2000/svg" xmlns:xlink="http://www.w3.org/1999/xlink" x="0px" y="0px"
	 width="64px" height="64px" viewBox="0 0 64 64" enable-background="new 0 0 64 64" xml:space="preserve">
<path fill="#010101" d="M62.732,6.386c0.004-1.104-0.422-2.14-1.2-2.919c-0.778-0.778-1.817-1.203-2.919-1.199
	c-1.101,0.005-2.137,0.437-2.918,1.218c-0.33,0.331-0.932,1.045-1.261,1.441c-0.345,0.416-0.289,1.034,0.128,1.379
	c0.416,0.346,1.034,0.288,1.38-0.128c0.515-0.621,0.941-1.11,1.139-1.308c0.413-0.412,0.96-0.641,1.541-0.644
	c0.003,0,0.006,0,0.009,0c0.575,0,1.113,0.222,1.516,0.626c0.406,0.406,0.628,0.948,0.626,1.526
	c-0.003,0.58-0.231,1.128-0.644,1.541c-0.37,0.37-1.641,1.378-3.461,2.65c-1.078-1.842-3.075-3.082-5.358-3.082H36.964
	c-1.936,0-3.757,0.754-5.126,2.123L3.166,38.283c-0.58,0.58-0.899,1.351-0.899,2.171c0,0.82,0.319,1.591,0.899,2.17l19.21,19.211
	c0.598,0.598,1.384,0.898,2.17,0.898c0.786,0,1.572-0.299,2.17-0.898L55.39,33.162c1.369-1.369,2.123-3.189,2.123-5.126V13.691
	c0-0.423-0.043-0.837-0.124-1.236c2.073-1.427,3.594-2.619,4.125-3.151C62.295,8.523,62.727,7.487,62.732,6.386z M55.554,28.036
	c0,1.413-0.551,2.742-1.549,3.741L25.332,60.45c-0.433,0.432-1.137,0.432-1.57,0L4.551,41.239c-0.209-0.21-0.325-0.488-0.325-0.785
	c0-0.297,0.116-0.575,0.325-0.785l28.673-28.673c0.999-1,2.327-1.549,3.74-1.549h14.344c1.611,0,3.015,0.902,3.734,2.227
	c-1.157,0.766-2.453,1.581-3.827,2.382c-0.043-0.047-0.087-0.093-0.132-0.139c-1.604-1.604-4.215-1.604-5.819,0
	c-1.604,1.604-1.604,4.215,0,5.819c0.803,0.802,1.856,1.203,2.909,1.203c1.054,0,2.107-0.401,2.91-1.203
	c1.07-1.071,1.425-2.59,1.067-3.959c1.195-0.696,2.343-1.407,3.403-2.095c0,0.003,0,0.006,0,0.009V28.036L55.554,28.036z
	 M47.299,17.266c0.172,0.342,0.517,0.54,0.876,0.54c0.148,0,0.299-0.034,0.44-0.105c0.574-0.289,1.146-0.589,1.713-0.898
	c0.006,0.56-0.203,1.12-0.629,1.546c-0.84,0.84-2.207,0.84-3.048,0c-0.84-0.84-0.84-2.208,0-3.048c0.42-0.42,0.972-0.63,1.524-0.63
	c0.437,0,0.873,0.134,1.244,0.398c-0.554,0.301-1.117,0.596-1.684,0.882C47.251,16.194,47.056,16.783,47.299,17.266z"/>
</svg>
