<?xml version="1.0" encoding="utf-8"?>
<!-- Generator: Adobe Illustrator 17.0.0, SVG Export Plug-In . SVG Version: 6.00 Build 0)  -->
<!DOCTYPE svg PUBLIC "-//W3C//DTD SVG 1.1//EN" "http://www.w3.org/Graphics/SVG/1.1/DTD/svg11.dtd">
<svg version="1.1" id="Layer_1" xmlns="http://www.w3.org/2000/svg" xmlns:xlink="http://www.w3.org/1999/xlink" x="0px" y="0px"
	 width="64px" height="64px" viewBox="0 0 64 64" enable-background="new 0 0 64 64" xml:space="preserve">
<g>
	<g>
		<path d="M52.464,27.599L52.464,27.599c-0.001-0.015-0.008-0.027-0.009-0.042c-0.004-0.048-0.014-0.096-0.029-0.143
			c-0.01-0.042-0.023-0.082-0.04-0.121c-0.02-0.037-0.043-0.073-0.07-0.105c-0.028-0.04-0.06-0.078-0.095-0.111
			c-0.011-0.01-0.016-0.023-0.028-0.032l-6.724-5.228v-5.419c0-1.16-0.939-2.1-2.098-2.1h-7.579l-3.035-2.359
			c-0.75-0.585-1.801-0.585-2.551,0l-3.035,2.359h-7.58c-1.159,0-2.098,0.94-2.098,2.1v5.419l-6.723,5.228
			c-0.012,0.009-0.017,0.022-0.028,0.032c-0.036,0.033-0.068,0.07-0.095,0.111c-0.026,0.032-0.05,0.067-0.07,0.105
			c-0.017,0.039-0.03,0.08-0.04,0.121c-0.015,0.045-0.024,0.092-0.029,0.14c0,0.014-0.008,0.026-0.008,0.041V51.4
			c0.003,0.226,0.042,0.449,0.117,0.661c-0.16,0.243-0.153,0.559,0.019,0.794c0.172,0.234,0.471,0.336,0.751,0.256
			c0.353,0.253,0.777,0.388,1.211,0.388h37.768c0.437-0.001,0.862-0.139,1.216-0.394c0.06,0.019,0.121,0.029,0.184,0.03
			c0.256,0.001,0.491-0.138,0.613-0.362c0.121-0.225,0.11-0.498-0.03-0.712c0.074-0.213,0.114-0.436,0.116-0.661V27.599z
			 M31.062,13.045c0.244-0.194,0.59-0.194,0.835,0l1.613,1.254h-4.056L31.062,13.045z M12.771,52.1l18.291-14.22
			c0.245-0.193,0.589-0.193,0.834,0L50.192,52.1H12.771z M51.065,51.006l-18.31-14.232c-0.749-0.584-1.799-0.584-2.549,0
			L11.899,51.006V28.666l11.461,8.908c0.306,0.237,0.745,0.181,0.982-0.125c0.237-0.305,0.181-0.745-0.124-0.982l-11.644-9.05
			l4.921-3.826V29c0,0.386,0.313,0.7,0.699,0.7c0.386,0,0.699-0.313,0.699-0.7V16.399c0-0.387,0.313-0.7,0.699-0.7h23.779
			c0.387,0,0.7,0.313,0.7,0.7V29c0,0.386,0.313,0.7,0.699,0.7c0.386,0,0.699-0.313,0.699-0.7v-5.409l4.92,3.826l-11.665,9.066
			c-0.305,0.237-0.36,0.677-0.123,0.982c0.237,0.306,0.676,0.361,0.982,0.124l11.482-8.923V51.006z M24.488,20.599h13.988
			c0.386,0,0.699-0.313,0.699-0.7c0-0.387-0.313-0.7-0.699-0.7H24.488c-0.387,0-0.7,0.313-0.7,0.7
			C23.788,20.286,24.101,20.599,24.488,20.599z M39.175,24.099c0-0.387-0.313-0.7-0.699-0.7H24.488c-0.387,0-0.7,0.313-0.7,0.7
			c0,0.386,0.313,0.7,0.7,0.7h13.988C38.862,24.799,39.175,24.486,39.175,24.099z M39.175,28.299c0-0.386-0.313-0.7-0.699-0.7
			h-6.295c-0.386,0-0.699,0.314-0.699,0.7c0,0.386,0.313,0.7,0.699,0.7h6.295C38.862,29,39.175,28.686,39.175,28.299z"/>
	</g>
</g>
</svg>
