<?xml version="1.0" encoding="utf-8"?>
<!-- Generator: Adobe Illustrator 17.0.0, SVG Export Plug-In . SVG Version: 6.00 Build 0)  -->
<!DOCTYPE svg PUBLIC "-//W3C//DTD SVG 1.1//EN" "http://www.w3.org/Graphics/SVG/1.1/DTD/svg11.dtd">
<svg version="1.1" id="Layer_1" xmlns="http://www.w3.org/2000/svg" xmlns:xlink="http://www.w3.org/1999/xlink" x="0px" y="0px"
	 width="64px" height="64px" viewBox="0 0 64 64" enable-background="new 0 0 64 64" xml:space="preserve">
<path fill="#010101" d="M22.703,36.849l14.636-13.546c0.883-0.822,2.212-0.822,3.099,0l1.557,1.438c0.883,0.819,0.883,2.051,0,2.871
	L27.359,41.157c-0.887,0.822-2.216,0.822-3.101,0l-1.555-1.437C21.816,38.902,21.816,37.567,22.703,36.849z M36.006,40.746
	c-0.885-0.817-2.214-0.817-3.104,0l-11.97,11.087c-0.5,0.464-1.291,0.364-1.553,0l-8.09-7.494c-0.501-0.463-0.396-1.194,0-1.434
	L23.26,31.82c0.885-0.822,0.885-2.05,0-2.873l-1.555-1.434c-0.883-0.824-2.212-0.824-3.101,0L6.745,38.289
	c-3.479,3.216-3.081,7.718-0.226,10.364l8.092,7.492c3.123,2.887,8.023,2.728,11.197-0.21l11.749-10.878
	c0.889-0.819,0.889-2.052,0-2.873L36.006,40.746z M58.175,15.915c-1.881-1.749-6.318-5.853-8.199-7.597
	c-3.097-2.865-7.978-2.713-10.867,0.102L27.138,19.401c-0.887,0.822-0.887,2.053,0,2.876l1.55,1.436
	c0.889,0.819,2.216,0.819,3.106,0l11.97-11.084c0.496-0.464,1.287-0.364,1.551,0l8.092,7.493c0.498,0.462,0.393,1.191,0,1.434
	L41.548,32.742c-0.889,0.823-0.889,2.055,0,2.875l1.55,1.436c0.887,0.823,2.216,0.823,3.106,0l11.97-11.081
	C61.059,23.298,61.284,18.79,58.175,15.915z"/>
</svg>
