<?xml version="1.0" encoding="utf-8"?>
<!-- Generator: Adobe Illustrator 17.0.0, SVG Export Plug-In . SVG Version: 6.00 Build 0)  -->
<!DOCTYPE svg PUBLIC "-//W3C//DTD SVG 1.1//EN" "http://www.w3.org/Graphics/SVG/1.1/DTD/svg11.dtd">
<svg version="1.1" id="Layer_1" xmlns="http://www.w3.org/2000/svg" xmlns:xlink="http://www.w3.org/1999/xlink" x="0px" y="0px"
	 width="64px" height="64px" viewBox="0 0 64 64" enable-background="new 0 0 64 64" xml:space="preserve">
<g>
	<g>
		<path d="M44.786,9.502H18.214c-5.356,0-9.713,4.357-9.713,9.713v26.572c0,5.355,4.357,9.712,9.713,9.712h26.571
			c5.356,0,9.713-4.357,9.713-9.712V19.214C54.499,13.859,50.142,9.502,44.786,9.502z M52.16,45.786
			c0,4.066-3.309,7.374-7.375,7.374H18.214c-4.066,0-7.374-3.308-7.374-7.374V19.214c0-4.066,3.308-7.374,7.374-7.374h26.571
			c4.067,0,7.375,3.308,7.375,7.374V45.786z M32.056,20.429c-7.104-0.32-12.952,5.531-12.627,12.635
			c0.282,6.157,5.235,11.161,11.389,11.502c2.596,0.144,5.028-0.539,7.059-1.808c0.633-0.395,0.736-1.275,0.209-1.802
			c-0.005-0.006-0.011-0.011-0.016-0.017c-0.385-0.385-0.981-0.442-1.442-0.155c-1.518,0.943-3.312,1.481-5.231,1.461
			c-5.418-0.057-9.789-4.607-9.637-10.023c0.153-5.451,4.804-9.796,10.365-9.448c4.792,0.3,8.693,4.121,9.087,8.906
			c0.161,1.949-0.258,3.791-1.101,5.375c-0.241,0.453-0.166,1.01,0.197,1.373c0.006,0.006,0.012,0.012,0.018,0.018
			c0.546,0.546,1.469,0.417,1.834-0.263c1.01-1.884,1.536-4.064,1.406-6.375C43.219,25.656,38.212,20.706,32.056,20.429z
			 M43.974,15.349c-1.722,0-3.118,1.396-3.118,3.119c0,1.722,1.396,3.118,3.118,3.118c1.723,0,3.119-1.396,3.119-3.118
			C47.092,16.745,45.696,15.349,43.974,15.349z"/>
	</g>
</g>
</svg>
