<?xml version="1.0" encoding="utf-8"?>
<!-- Generator: Adobe Illustrator 17.0.0, SVG Export Plug-In . SVG Version: 6.00 Build 0)  -->
<!DOCTYPE svg PUBLIC "-//W3C//DTD SVG 1.1//EN" "http://www.w3.org/Graphics/SVG/1.1/DTD/svg11.dtd">
<svg version="1.1" id="Layer_1" xmlns="http://www.w3.org/2000/svg" xmlns:xlink="http://www.w3.org/1999/xlink" x="0px" y="0px"
	 width="64px" height="64px" viewBox="0 0 64 64" enable-background="new 0 0 64 64" xml:space="preserve">
<g>
	<g>
		<path d="M27.18,34.621c-0.496,0-0.898,0.402-0.898,0.898v3.305l-0.849-1.57c-0.823-1.524-2.679-2.107-4.225-1.327
			c-1.323,0.668-2.005,2.14-1.657,3.581l1.645,6.818c0.385,1.593,1.07,3.072,2.037,4.396l3.222,4.409
			c0.176,0.241,0.449,0.368,0.726,0.368c0.184,0,0.369-0.056,0.529-0.173c0.4-0.293,0.487-0.854,0.195-1.255l-3.222-4.41
			c-0.827-1.131-1.412-2.395-1.741-3.757l-1.645-6.818c-0.151-0.626,0.145-1.266,0.72-1.555c0.672-0.339,1.478-0.086,1.835,0.576
			l2.537,4.698c0.195,0.362,0.612,0.545,1.011,0.444c0.399-0.101,0.678-0.46,0.678-0.871v-6.86
			C28.078,35.023,27.676,34.621,27.18,34.621z M42.301,33.702c-0.53,0-1.029,0.136-1.464,0.374
			c-0.441-1.149-1.555-1.966-2.856-1.966c-0.562,0-1.088,0.153-1.54,0.418c-0.484-1.053-1.548-1.786-2.781-1.786
			c-0.45,0-0.877,0.098-1.262,0.274V26.72c0-1.687-1.372-3.058-3.059-3.058c-1.686,0-3.058,1.372-3.058,3.058v1.557
			c0,0.496,0.403,0.899,0.898,0.899c0.497,0,0.899-0.402,0.899-0.899V26.72c0-0.696,0.566-1.262,1.262-1.262
			c0.696,0,1.262,0.566,1.262,1.262v12.677c0,0.496,0.403,0.898,0.899,0.898c0.496,0,0.898-0.402,0.898-0.898V33.8
			c0-0.696,0.566-1.262,1.262-1.262c0.695,0,1.262,0.566,1.262,1.262v5.597c0,0.496,0.403,0.898,0.899,0.898
			c0.496,0,0.898-0.402,0.898-0.898v-4.228c0-0.696,0.566-1.262,1.262-1.262c0.696,0,1.262,0.566,1.262,1.262v4.228
			c0,0.496,0.402,0.898,0.898,0.898c0.496,0,0.899-0.402,0.899-0.898V36.76c0-0.696,0.566-1.262,1.262-1.262
			c0.696,0,1.262,0.566,1.262,1.262v7.581c0,2.021-0.307,4.022-0.911,5.949l-1.267,4.041c-0.148,0.473,0.115,0.978,0.588,1.127
			c0.09,0.028,0.18,0.041,0.27,0.041c0.382,0,0.736-0.246,0.857-0.63l1.267-4.041c0.659-2.102,0.993-4.284,0.993-6.487V36.76
			C45.36,35.074,43.988,33.702,42.301,33.702z M54.424,14.264c-0.179-0.552-0.647-0.946-1.221-1.029l-2.752-0.399l-1.231-2.493
			C48.964,9.823,48.443,9.5,47.864,9.5c0,0,0,0,0,0c-0.58,0-1.1,0.323-1.356,0.844l-1.23,2.494l-2.752,0.4
			c-0.574,0.084-1.042,0.478-1.221,1.03c-0.179,0.551-0.033,1.146,0.383,1.55l1.992,1.94l-0.47,2.741
			c-0.098,0.572,0.133,1.138,0.602,1.479c0.265,0.192,0.575,0.29,0.887,0.29c0.241,0,0.483-0.058,0.706-0.175l2.461-1.295
			l2.461,1.293c0.514,0.27,1.124,0.226,1.593-0.116c0.469-0.341,0.699-0.908,0.601-1.479l-0.471-2.741l1.991-1.942
			C54.457,15.41,54.604,14.816,54.424,14.264z M50.69,16.574c-0.357,0.347-0.519,0.848-0.435,1.339l0.399,2.32l-2.084-1.095
			c-0.441-0.232-0.968-0.232-1.408,0l-2.083,1.096l0.397-2.321c0.084-0.49-0.078-0.991-0.435-1.338l-1.686-1.643l2.329-0.339
			c0.493-0.072,0.918-0.381,1.139-0.828l1.042-2.111l1.042,2.111c0.22,0.446,0.646,0.755,1.139,0.827l2.329,0.338L50.69,16.574z
			 M27.315,17.758L26.846,20.5c-0.098,0.572,0.132,1.138,0.602,1.479c0.265,0.192,0.575,0.29,0.887,0.29
			c0.24,0,0.482-0.058,0.706-0.175l2.461-1.295l2.461,1.293c0.514,0.27,1.124,0.226,1.593-0.116
			c0.469-0.341,0.699-0.908,0.601-1.479l-0.471-2.74l1.991-1.942c0.415-0.405,0.561-0.999,0.382-1.551
			c-0.179-0.552-0.647-0.946-1.221-1.029l-2.752-0.399l-1.232-2.493C32.598,9.823,32.079,9.5,31.499,9.5c0,0,0,0-0.001,0
			c-0.58,0-1.1,0.323-1.356,0.844l-1.23,2.494l-2.752,0.4c-0.574,0.084-1.042,0.478-1.221,1.03c-0.179,0.551-0.032,1.146,0.383,1.55
			L27.315,17.758z M29.319,14.594c0.493-0.072,0.918-0.381,1.139-0.828l1.041-2.111l1.043,2.111c0.22,0.446,0.646,0.755,1.139,0.827
			l2.329,0.338l-1.685,1.644c-0.357,0.347-0.519,0.848-0.435,1.339l0.399,2.32l-2.084-1.095c-0.441-0.232-0.967-0.232-1.408,0
			l-2.083,1.096l0.398-2.321c0.084-0.491-0.079-0.991-0.435-1.338l-1.686-1.643L29.319,14.594z M19.792,20.497l-0.471-2.74
			l1.991-1.942c0.415-0.405,0.562-0.999,0.383-1.551c-0.179-0.552-0.647-0.946-1.222-1.029l-2.752-0.399l-1.231-2.493
			C16.233,9.823,15.714,9.5,15.133,9.5c-0.58,0-1.1,0.323-1.356,0.844l-1.231,2.494l-2.751,0.4c-0.574,0.084-1.042,0.478-1.22,1.03
			c-0.179,0.551-0.033,1.146,0.383,1.55l1.991,1.94L10.48,20.5c-0.098,0.572,0.133,1.138,0.602,1.479
			c0.265,0.192,0.575,0.29,0.887,0.29c0.241,0,0.483-0.058,0.706-0.175l2.461-1.294l2.461,1.293c0.513,0.27,1.123,0.226,1.593-0.115
			C19.66,21.635,19.891,21.068,19.792,20.497z M17.96,16.574c-0.357,0.347-0.519,0.848-0.435,1.339l0.399,2.32l-2.084-1.095
			c-0.44-0.232-0.967-0.232-1.408,0l-2.083,1.096l0.398-2.321c0.084-0.491-0.079-0.991-0.435-1.339l-1.686-1.643l2.33-0.339
			c0.492-0.072,0.918-0.381,1.138-0.828l1.042-2.111l1.042,2.111c0.221,0.446,0.646,0.755,1.139,0.827l2.33,0.338L17.96,16.574z
			 M27.18,31.08c-0.236,0-0.468,0.096-0.635,0.263c-0.167,0.168-0.263,0.399-0.263,0.635c0,0.237,0.096,0.469,0.263,0.635
			c0.167,0.168,0.399,0.263,0.635,0.263c0.236,0,0.468-0.096,0.635-0.263c0.167-0.167,0.264-0.398,0.264-0.635
			c0-0.236-0.096-0.468-0.264-0.635C27.648,31.177,27.416,31.08,27.18,31.08z"/>
	</g>
</g>
</svg>
