<?xml version="1.0" encoding="utf-8"?>
<!-- Generator: Adobe Illustrator 17.0.0, SVG Export Plug-In . SVG Version: 6.00 Build 0)  -->
<!DOCTYPE svg PUBLIC "-//W3C//DTD SVG 1.1//EN" "http://www.w3.org/Graphics/SVG/1.1/DTD/svg11.dtd">
<svg version="1.1" id="Layer_1" xmlns="http://www.w3.org/2000/svg" xmlns:xlink="http://www.w3.org/1999/xlink" x="0px" y="0px"
	 width="64px" height="64px" viewBox="0 0 64 64" enable-background="new 0 0 64 64" xml:space="preserve">
<g>
	<g>
		<path d="M59.074,47.409H52.13v-6.773c0-0.5-0.417-0.909-0.926-0.909s-0.926,0.409-0.926,0.909v6.773h-6.944
			c-0.509,0-0.925,0.409-0.925,0.909c0,0.5,0.416,0.909,0.925,0.909h6.944v6.864c0,0.5,0.416,0.909,0.926,0.909
			s0.926-0.409,0.926-0.909v-6.864h6.944c0.509,0,0.926-0.409,0.926-0.909C59.999,47.818,59.583,47.409,59.074,47.409z
			 M42.964,33.409c1.389,0.409,2.685,1.045,3.704,1.954c0.37,0.318,0.972,0.272,1.296-0.091c0.324-0.364,0.278-0.955-0.093-1.273
			c-1.25-1.091-2.777-1.864-4.49-2.318l-0.555-0.136c-0.88-0.227-1.852,0.091-2.407,0.727c-2.037,2.273-4.629,2.455-7.361,2.455
			c-2.685,0-5.277-0.182-7.314-2.455c-0.601-0.682-1.527-0.954-2.361-0.727l-0.555,0.136c-3.842,1-6.897,3.909-8.008,7.682
			L14.032,42H6.256c-0.186,0-0.278-0.091-0.325-0.137c-0.047-0.045-0.139-0.182-0.093-0.364l1.528-5.318
			c1.296-4.227,4.027-5.591,8.935-6.727c0.092,0,0.139-0.046,0.231-0.091c0.324,0.227,0.695,0.454,1.018,0.637
			c0.139,0.091,0.278,0.091,0.417,0.091c0.324,0,0.648-0.182,0.833-0.5c0.231-0.454,0.047-1-0.37-1.227
			C15.699,27,13.708,23.046,13.708,19c0-3.682,3.009-6.636,6.759-6.636c1.111,0,2.129,0.273,3.148,0.773
			c-0.556,1.273-0.88,2.682-0.88,4.136c0,7.773,4.768,14.318,10.462,14.318c5.555,0,10.462-6.682,10.462-14.318
			C43.659,11.591,38.983,7,33.197,7c-3.61,0-6.805,1.818-8.702,4.546L24.448,11.5c-1.25-0.636-2.592-0.955-3.981-0.955
			c-4.768,0-8.61,3.773-8.61,8.455c0,3.409,1.203,6.682,3.101,8.863c-4.212,1.046-7.73,2.591-9.351,7.773L4.08,41
			c-0.185,0.682-0.047,1.409,0.417,1.954c0.417,0.546,1.064,0.864,1.759,0.864h7.221l-0.648,2.136
			c-0.231,0.773-0.093,1.591,0.417,2.228c0.509,0.636,1.296,1.045,2.129,1.045h19.627c0.509,0,0.926-0.409,0.926-0.909
			c0-0.5-0.417-0.909-0.926-0.909H15.375c-0.231,0-0.463-0.091-0.602-0.318C14.68,47,14.588,46.773,14.68,46.455l1.945-6.636
			c0.926-3.136,3.472-5.591,6.712-6.409l0.556-0.136c0.185-0.045,0.37,0.045,0.509,0.182c2.547,2.864,5.694,3.091,8.749,3.091
			c3.055,0,6.203-0.227,8.749-3.091c0,0,0-0.045,0.046-0.045c0.093-0.091,0.325-0.182,0.464-0.136L42.964,33.409z M33.197,8.818
			c3.842,0,7.083,2.5,8.194,5.909c-1.62,0.318-3.333-0.318-4.352-1.682c-0.324-0.409-0.879-0.5-1.296-0.181
			c-0.185,0.136-0.278,0.273-0.324,0.455c-0.047,0.045-0.047,0.091-0.093,0.136c-1.296,2.591-5.648,3.682-10.647,2.727
			C25.235,12.045,28.846,8.818,33.197,8.818z M28.151,18.318c3.703,0,6.758-1.136,8.332-3.272c1.157,1,2.592,1.545,4.12,1.545
			c0.37,0,0.788-0.046,1.158-0.137c0.046,0.273,0.046,0.5,0.046,0.773c0,6.682-4.027,12.546-8.61,12.546
			c-4.397,0-8.332-5.409-8.61-11.773C25.837,18.227,26.994,18.318,28.151,18.318z"/>
	</g>
</g>
</svg>
